<svg width="26" height="23" viewBox="0 0 26 23" fill="none" xmlns="http://www.w3.org/2000/svg">
<path d="M1.28125 5.25H21.5938C22.0254 5.25 22.375 4.90039 22.375 4.46875V1.34375C22.375 0.912109 22.0254 0.5625 21.5938 0.5625H1.28125C0.849609 0.5625 0.5 0.912109 0.5 1.34375V4.46875C0.5 4.90039 0.849609 5.25 1.28125 5.25ZM24.7188 9.15625H4.40625C3.97461 9.15625 3.625 9.50586 3.625 9.9375V13.0625C3.625 13.4941 3.97461 13.8438 4.40625 13.8438H24.7188C25.1504 13.8438 25.5 13.4941 25.5 13.0625V9.9375C25.5 9.50586 25.1504 9.15625 24.7188 9.15625ZM21.5938 17.75H1.28125C0.849609 17.75 0.5 18.0996 0.5 18.5312V21.6562C0.5 22.0879 0.849609 22.4375 1.28125 22.4375H21.5938C22.0254 22.4375 22.375 22.0879 22.375 21.6562V18.5312C22.375 18.0996 22.0254 17.75 21.5938 17.75Z" fill="#FF725E"/>
</svg>
